#!OML:ASF F:\VICON\USERDATA\INSTALL\rory3\rory3.ASF
:FULLY-SPECIFIED
:DEGREES
205
root 1.83999 17.0328 13.5456 4.42976 48.8477 7.80649
lowerback 6.50966 -4.14979 -7.71697
upperback 0.355136 -6.02254 2.16387
thorax -2.24232 -2.92437 7.04015
lowerneck -19.2238 -3.46551 -10.5096
upperneck 21.8822 -2.67936 4.40646
head 10.411 -1.56629 2.93269
rclavicle -5.77469e-014 -1.35174e-014
rhumerus -42.6003 -13.7516 -77.3959
rradius 27.7992
rwrist 2.78852
rhand -13.2679 12.0695
rfingers 7.12502
rthumb 12.8349 -17.5159
lclavicle -5.77469e-014 -1.35174e-014
lhumerus -27.7102 3.18534 83.7885
lradius 48.3263
lwrist 3.04134
lhand -20.5797 27.3901
lfingers 7.12502
lthumb 5.78018 57.2913
rfemur -28.7244 -0.23731 15.4102
rtibia 30.3131
rfoot -2.64085 -6.01241
rtoes 4.4789
lfemur 13.3739 -3.16836 -26.3879
ltibia 34.045
lfoot 8.42178 -9.97473
ltoes -17.3346
206
root 1.99 17.0557 13.7692 3.18045 48.8075 6.31471
lowerback 6.43029 -4.08945 -6.70687
upperback 0.43383 -5.85289 2.39874
thorax -2.22085 -2.85184 6.70133
lowerneck -18.8948 -3.45774 -10.4918
upperneck 21.389 -2.69193 4.33939
head 10.171 -1.57234 2.89753
rclavicle 3.18552e-014 6.36111e-015
rhumerus -42.5036 -13.6739 -77.3894
rradius 27.7867
rwrist 2.55074
rhand -13.4073 12.2049
rfingers 7.12502
rthumb 12.7006 -17.3889
lclavicle 3.18552e-014 6.36111e-015
lhumerus -27.9909 3.15619 83.8109
lradius 48.1933
lwrist 3.4827
lhand -21.5474 28.6587
lfingers 7.12502
lthumb 4.84579 58.5833
rfemur -27.8931 0.269514 16.7062
rtibia 30.6565
rfoot -1.90846 -5.39646
rtoes 3.11692
lfemur 11.8221 -2.87653 -24.9492
ltibia 37.2814
lfoot 11.5693 -11.1715
ltoes -16.4346
207
root 2.13705 17.0951 13.9945 2.07446 48.8301 5.05013
lowerback 6.40342 -4.0928 -5.92895
upperback 0.5423 -5.78914 2.63791
thorax -2.15465 -2.8318 6.50451
lowerneck -19.0058 -3.51049 -10.6075
upperneck 21.3161 -2.74421 4.44417
head 10.1732 -1.59148 2.94501
rclavicle -1.77415e-014 -1.66979e-014
rhumerus -42.4864 -13.7504 -77.3025
rradius 28.0613
rwrist 2.55774
rhand -13.3243 12.0156
rfingers 7.12502
rthumb 12.7806 -17.5732
lclavicle -1.77415e-014 -1.66979e-014
lhumerus -28.1477 3.73527 83.6559
lradius 47.663
lwrist 3.4
lhand -21.7902 28.1619
lfingers 7.12502
lthumb 4.61137 58.0917
rfemur -27.0359 0.242803 18.0632
rtibia 31.0002
rfoot -1.51705 -4.8671
rtoes -0.842718
lfemur 10.2702 -2.95156 -23.7908
ltibia 40.4407
lfoot 14.177 -12.6168
ltoes -13.2246
208
root 2.28061 17.1264 14.2125 1.57706 48.7918 4.58774
lowerback 6.44682 -3.96752 -5.63797
upperback 0.675224 -5.59706 2.7381
thorax -2.08749 -2.74359 6.43291
lowerneck -19.3881 -3.67225 -10.8146
upperneck 21.4235 -2.89006 4.55129
head 10.3015 -1.66172 2.99588
rclavicle 5.82439e-014 1.51076e-014
rhumerus -42.3624 -13.8953 -77.1351
rradius 28.3538
rwrist 2.42095
rhand -13.2172 12.0312
rfingers 7.12502
rthumb 12.8838 -17.5511
lclavicle 5.82439e-014 1.51076e-014
lhumerus -28.075 4.23046 83.6973
lradius 47.0886
lwrist 2.92485
lhand -21.7523 27.4536
lfingers 7.12502
lthumb 4.64796 57.3826
rfemur -26.1807 -0.0859205 18.8552
rtibia 31.35
rfoot -1.50414 -4.51037
rtoes -3.73739
lfemur 8.54366 -2.98439 -23.2962
ltibia 43.558
lfoot 18.245 -12.154
ltoes -6.82996
209
root 2.41926 17.1461 14.4421 0.830092 48.634 4.0134
lowerback 6.67603 -3.71471 -5.37358
upperback 0.769947 -5.24612 2.82265
thorax -2.18514 -2.56767 6.36868
lowerneck -19.5279 -3.91911 -11.0384
upperneck 21.6246 -3.18682 4.69347
head 10.4339 -1.80182 3.04199
rclavicle 3.78188e-014 -1.35174e-014
rhumerus -42.4038 -13.8996 -77.0062
rradius 28.6359
rwrist 2.12521
rhand -12.8653 11.7793
rfingers 7.12502
rthumb 13.2231 -17.7813
lclavicle 3.78188e-014 -1.35174e-014
lhumerus -28.3272 4.26896 83.785
lradius 46.7226
lwrist 2.21539
lhand -20.9514 27.7278
lfingers 7.12502
lthumb 5.42123 57.6384
rfemur -25.0393 -0.0909552 19.651
rtibia 31.7137
rfoot -2.07396 -4.85306
rtoes -1.72686
lfemur 6.89425 -2.77897 -22.6592
ltibia 46.6403
lfoot 22.3553 -11.8912
ltoes -3.38542
210
root 2.55677 17.1652 14.6723 -0.356775 48.4337 2.81544
lowerback 6.73285 -3.59977 -4.85661
upperback 0.941607 -5.04669 3.04522
thorax -2.092 -2.47809 6.29526
lowerneck -19.6056 -4.02434 -11.1489
upperneck 21.6817 -3.35291 4.93208
head 10.4899 -1.85886 3.1224
rclavicle -1.2588e-013 3.4191e-014
rhumerus -42.0971 -13.5182 -77.2031
rradius 28.7633
rwrist 1.83764
rhand -12.578 11.5119
rfingers 7.12502
rthumb 13.4999 -18.0305
lclavicle -1.2588e-013 3.4191e-014
lhumerus -28.5833 4.72583 83.5587
lradius 46.1699
lwrist 1.11302
lhand -19.4838 26.6306
lfingers 7.12502
lthumb 6.8381 56.5001
rfemur -23.7761 0.207086 20.8575
rtibia 31.9017
rfoot -2.89901 -5.25448
rtoes 0.00727077
lfemur 5.22673 -2.63837 -21.5914
ltibia 49.7198
lfoot 26.2888 -11.8629
ltoes -1.28426
211
root 2.70397 17.1867 14.871 -1.23506 48.2126 1.78267
lowerback 6.66718 -3.60079 -4.20485
upperback 1.12027 -4.98753 3.30613
thorax -1.91069 -2.46129 6.1836
lowerneck -19.9172 -3.95624 -11.0076
upperneck 21.7331 -3.23469 4.8134
head 10.5511 -1.80515 3.07282
rclavicle 4.02539e-015 1.82882e-014
rhumerus -41.5048 -12.6996 -77.4451
rradius 28.9583
rwrist 1.22296
rhand -12.2705 11.5126
rfingers 7.12502
rthumb 13.7963 -18.0099
lclavicle 4.02539e-015 1.82882e-014
lhumerus -28.5925 5.55013 83.5436
lradius 45.5761
lwrist 0.57292
lhand -18.971 26.1435
lfingers 7.12502
lthumb 7.33314 55.9965
rfemur -22.5346 0.0658362 21.9178
rtibia 31.7588
rfoot -3.69738 -4.89959
rtoes -1.25536
lfemur 3.38293 -2.68365 -20.8923
ltibia 52.7124
lfoot 29.9593 -11.7482
ltoes 3.61916
